<svg width="156" height="47" viewBox="0 0 156 47" fill="none" xmlns="http://www.w3.org/2000/svg">
<path d="M4.98113 7.62939e-05H0V35.975H4.98113V22.6286C4.98113 20.3708 5.54273 18.5896 6.66593 17.3353C7.78912 16.0809 9.32741 15.4286 11.232 15.4286C12.8679 15.4286 14.2353 16.0307 15.3341 17.1847C16.4329 18.3638 16.9944 19.844 16.9944 21.6252V36.0001H22V21.6252C22 18.3137 21.0966 15.7046 19.2897 13.7478C17.4828 11.791 15.1143 10.8126 12.2331 10.8126C11.4029 10.8126 10.5727 10.913 9.76693 11.1388C8.93674 11.3645 8.27747 11.6154 7.74029 11.8914C7.20311 12.1673 6.69034 12.4684 6.22642 12.8196C5.76249 13.1708 5.44506 13.4217 5.29856 13.5722C5.15205 13.7227 5.02997 13.8231 4.98113 13.8983V7.62939e-05Z" fill="#F0145A"/>
<path d="M33.135 0H28V35.945H33.135V0Z" fill="#323264"/>
<path d="M63.422 25.4178L63.6788 22.8503C63.6788 19.4098 62.5491 16.5342 60.2383 14.2235C57.9276 11.9127 55.052 10.783 51.6115 10.783C48.1711 10.783 45.1928 12.0154 42.728 14.4802C40.2632 16.945 39.0308 19.872 39.0308 23.3638C39.0308 26.9583 40.3145 30.0393 42.8307 32.6068C45.3468 35.1743 48.3765 36.4581 51.8683 36.4581C53.2034 36.4581 54.4358 36.2527 55.6682 35.8932C56.9006 35.4824 57.9276 35.0716 58.6465 34.6608C59.4167 34.1987 60.187 33.6852 60.8545 33.1203C61.5221 32.5555 61.9842 32.1447 62.1896 31.8879C62.395 31.6312 62.5491 31.4771 62.6518 31.3231L59.314 27.9853L58.5438 28.961C58.0303 29.5772 57.1573 30.1934 55.9249 30.8609C54.6412 31.5285 53.3061 31.8366 51.8683 31.8366C49.8656 31.8366 48.1711 31.2204 46.7333 29.9366C45.2955 28.6529 44.4225 27.1637 44.1658 25.4178H63.422ZM51.6115 15.1478C53.5115 15.1478 55.052 15.7126 56.3357 16.791C57.5681 17.9207 58.3384 19.3071 58.6465 21.053H44.3712C44.8333 19.3071 45.6549 17.9207 46.9387 16.791C48.1711 15.7126 49.7629 15.1478 51.6115 15.1478Z" fill="#323264"/>
<path d="M87.3711 34.4554C87.3711 36.7148 86.7035 38.5634 85.3171 40.0012C83.982 41.3877 82.2874 42.1066 80.1821 42.1066C79.2578 42.1066 78.3335 41.9525 77.4605 41.6958C76.5876 41.439 75.92 41.1309 75.3552 40.7715C74.7903 40.412 74.2768 40.0526 73.7633 39.5904C73.3012 39.1283 72.9931 38.8202 72.839 38.6661C72.685 38.5121 72.5823 38.358 72.4796 38.2553L69.1418 41.5931L69.5526 42.1066C69.8094 42.466 70.2715 42.9282 70.8877 43.4417C71.5039 43.9038 72.2228 44.4173 73.0444 44.9308C73.866 45.393 74.893 45.8038 76.1768 46.1632C77.4605 46.5227 78.7956 46.7281 80.1821 46.7281C83.6739 46.7281 86.5495 45.547 88.9629 43.1849C91.325 40.7715 92.5061 37.8959 92.5061 34.404V11.2965H87.3711V13.864L86.4981 13.0938C85.9333 12.5803 85.0603 12.0668 83.8279 11.5533C82.5955 11.0398 81.2604 10.783 79.9253 10.783C76.793 10.783 74.1228 11.9641 71.812 14.3775C69.5013 16.791 68.3716 19.6666 68.3716 23.107C68.3716 26.5475 69.5013 29.4231 71.812 31.8365C74.1228 34.25 76.793 35.431 79.9253 35.431C80.7983 35.431 81.6199 35.3284 82.4928 35.1229C83.3144 34.8662 83.982 34.6094 84.5468 34.3527C85.1117 34.0959 85.6252 33.7878 86.0873 33.4284C86.5495 33.0689 86.9089 32.8122 87.0116 32.7095L87.3711 32.35V34.4554ZM73.5066 23.107C73.5066 20.9503 74.1741 19.1531 75.5606 17.6639C76.947 16.1748 78.5902 15.4045 80.4388 15.4045C82.2874 15.4045 83.9306 16.1748 85.3171 17.6639C86.6522 19.1531 87.3711 20.9503 87.3711 23.107C87.3711 25.2637 86.6522 27.061 85.3171 28.5501C83.9306 30.0393 82.2874 30.8095 80.4388 30.8095C78.5902 30.8095 76.947 30.0393 75.5606 28.5501C74.1741 27.061 73.5066 25.2637 73.5066 23.107Z" fill="#323264"/>
<path d="M119.309 35.9446V20.026C119.309 17.4072 118.333 15.1991 116.433 13.4532C114.533 11.656 112.068 10.783 109.039 10.783C107.858 10.783 106.677 10.9371 105.547 11.2452C104.417 11.6046 103.493 11.9641 102.825 12.3749C102.158 12.7857 101.49 13.2478 100.874 13.8127C100.258 14.3262 99.8985 14.6856 99.6931 14.891C99.539 15.0964 99.385 15.2505 99.2823 15.4045L102.62 18.7423L103.288 17.8693C103.698 17.3045 104.417 16.791 105.496 16.2261C106.574 15.6613 107.755 15.4045 109.039 15.4045C110.528 15.4045 111.76 15.8667 112.736 16.7396C113.712 17.6126 114.174 18.7423 114.174 20.026L105.188 21.5665C102.979 21.926 101.182 22.7989 99.9498 24.1854C98.6661 25.5719 97.9985 27.2664 97.9985 29.2691C97.9985 31.169 98.8201 32.8122 100.463 34.25C102.158 35.7392 104.212 36.4581 106.728 36.4581C107.601 36.4581 108.423 36.3554 109.244 36.0986C110.117 35.8932 110.785 35.6365 111.35 35.3797C111.914 35.123 112.428 34.8149 112.89 34.4554C113.352 34.096 113.66 33.8392 113.866 33.7365C114.02 33.5825 114.122 33.4284 114.174 33.3771V35.9446H119.309ZM107.498 31.8366C106.163 31.8366 105.085 31.5285 104.315 30.9123C103.493 30.2961 103.134 29.5772 103.134 28.7556C103.134 27.8826 103.39 27.1124 103.955 26.5475C104.52 25.9827 105.29 25.5719 106.215 25.4178L114.174 24.134V24.6475C114.174 26.9583 113.609 28.7042 112.428 29.988C111.247 31.2204 109.604 31.8366 107.498 31.8366Z" fill="#323264"/>
<path d="M130.64 -3.8147e-06H125.505V35.945H130.64V-3.8147e-06Z" fill="#323264"/>
<path d="M153.989 14.1208L153.681 13.7613C153.475 13.5559 153.167 13.2992 152.705 12.9397C152.243 12.5803 151.729 12.2722 151.164 11.9127C150.6 11.6046 149.829 11.3479 148.905 11.0911C147.981 10.8857 147.005 10.783 146.029 10.783C143.513 10.783 141.459 11.5019 139.816 12.9397C138.122 14.4289 137.3 16.0721 137.3 17.972C137.3 19.3585 137.608 20.4882 138.224 21.5152C138.84 22.4908 139.611 23.2097 140.586 23.6205C141.511 24.0827 142.538 24.5448 143.616 24.9043C144.694 25.2638 145.67 25.5719 146.646 25.8286C147.57 26.1367 148.34 26.4962 148.956 26.9583C149.573 27.4205 149.881 28.0367 149.881 28.7556C149.881 29.6799 149.521 30.4501 148.854 31.015C148.186 31.5285 147.159 31.8366 145.773 31.8366C144.643 31.8366 143.513 31.5285 142.435 31.015C141.357 30.4501 140.689 29.988 140.33 29.6285C140.022 29.2691 139.765 28.961 139.611 28.7556L136.273 32.0933L136.632 32.5555C136.889 32.8636 137.249 33.223 137.762 33.6338C138.327 34.096 138.943 34.5068 139.611 34.9176C140.33 35.3284 141.254 35.6878 142.332 35.9959C143.411 36.304 144.592 36.4581 145.773 36.4581C148.494 36.4581 150.754 35.6878 152.448 34.1987C154.143 32.7095 155.016 30.8609 155.016 28.7556C155.016 27.3691 154.708 26.1881 154.091 25.2638C153.475 24.2881 152.705 23.5692 151.729 23.107C150.805 22.5935 149.778 22.1827 148.7 21.8233C147.621 21.4638 146.646 21.1044 145.67 20.899C144.746 20.6422 143.975 20.2314 143.359 19.7693C142.743 19.3071 142.435 18.6909 142.435 17.972C142.435 17.3045 142.743 16.6883 143.411 16.1748C144.027 15.6613 144.9 15.4045 146.029 15.4045C146.851 15.4045 147.673 15.6099 148.443 15.9694C149.265 16.3288 149.829 16.6369 150.086 16.8937C150.343 17.1504 150.548 17.3558 150.651 17.4585L153.989 14.1208Z" fill="#323264"/>
</svg>
